<?xml version="1.0" standalone="no"?><!DOCTYPE svg PUBLIC "-//W3C//DTD SVG 1.1//EN" "http://www.w3.org/Graphics/SVG/1.1/DTD/svg11.dtd"><svg t="1758264433978" class="icon" viewBox="0 0 1024 1024" version="1.1" xmlns="http://www.w3.org/2000/svg" p-id="12198" xmlns:xlink="http://www.w3.org/1999/xlink" width="200" height="200"><path d="M465.213895 654.062985c-8.815643 80.112755-124.830943 97.536049-215.383275 87.568453-112.719434-12.411497-231.830609-136.798459-231.830609-136.798458s129.050772-168.165188 263.777315-153.337789c134.710543 14.831399 192.260212 122.427041 183.436569 202.567794z" fill="#B3EBB5" p-id="12199"></path><path d="M70.173897 567.530491s231.598618-150.261913 364.38124 25.974947l-12.959475 13.679446s-107.715637-115.183334-351.425764-39.654393z" fill="#A3D6A5" p-id="12200"></path><path d="M41.695051 608.860816s146.542064 118.235211 292.268161 73.069041c0 0 13.743443-36.458523 46.106132-59.00561 0 0-15.011392-31.11474-65.597343-15.439375-50.589951 15.679365-26.130941 59.965571-66.697298 61.813496-40.570357 1.835926-26.470928-32.742674-26.470928-32.742673s97.784039-129.278763 188.800353-20.455172c0 0-24.734998 84.228588-16.987312 113.851388 7.747686 29.6228-277.556757 46.510116-351.425765-121.091095z" fill="#A3D6A5" p-id="12201"></path><path d="M451.634445 652.567046c-1.98392 17.991271-10.299583 32.630678-25.41897 44.758187-40.410363 32.398688-116.835267 37.110497-174.888916 30.722755-106.547684-11.727525-222.294995-131.458675-223.454948-132.670625l0.971961 17.779279c1.23995-1.615935 126.002896-161.873443 251.429815-148.074001 130.8427 14.407416 178.97275 118.307208 171.361058 187.484405z m-168.36518-214.659305c-140.758298-15.491372-270.649037 151.489863-276.108815 158.605576L0.020739 605.82094l8.107672 8.463657c5.003797 5.227788 123.882982 128.13081 240.20227 140.934291 30.810752 3.395862 135.926494 10.775564 194.976102-36.562519 20.779158-16.651325 32.714675-37.882465 35.482562-63.093444 8.863641-80.460741-45.942139-201.18385-195.52008-217.655184z" fill="#6E6E96" p-id="12202"></path><path d="M476.749428 646.739282c-1.403943-2.21591-35.286571-54.621787-110.235535-87.432458-68.317233-29.898789-185.264495-48.414039-354.457641 33.214654l11.879518 24.615003c302.955728-146.162079 424.710796 36.438524 429.754592 44.278207l23.059066-14.675406z" fill="#6E6E96" p-id="12203"></path><path d="M426.931446 622.476265c-66.069324 87.916439 18.071268 239.654292 125.858902 296.439992 134.194564 70.689137 350.533801 90.260344 350.5338 90.260343s32.254693-292.172165-111.247493-408.667445c-143.506187-116.483282-299.063886-65.961328-365.145209 21.96711z" fill="#B3EBB5" p-id="12204"></path><path d="M352.834447 553.919042c-35.934544-8.007676-109.675557-1.035958-131.538671 82.636653a13.667446 13.667446 0 1 0 26.450928 6.90772c20.599166-78.836806 95.996111-63.553426 99.195982-62.861454l-0.047998-0.011999a13.663447 13.663447 0 1 0 5.939759-26.67092z" fill="#6E6E96" p-id="12205"></path><path d="M458.018187 607.976852s184.568524 14.291421 265.333252 102.007868c0 0 133.322599 14.503412 151.853848 33.134658 0 0-49.062013-126.766865-130.650707-159.285548 0 0 96.136106 68.861211 26.65092 85.996517-71.157118 17.53529-143.66618-96.77608-313.187313-61.853495zM434.48314 635.563735s-45.91014 274.488881 398.063875 310.383427c0 0-30.574761-188.176377-198.279968-266.969186 0 0 203.91574 77.416864 255.02967 317.355145 0 0-400.715768-11.747524-470.004962-235.318468 0 0-10.719566-87.236466 9.15163-124.954938" fill="#A3D6A5" p-id="12206"></path><path d="M624.371448 829.439881s-8.983636 36.250532 29.39081 35.982543c38.374446-0.263989 32.470685-102.991828 21.827115-137.330437 0 0 120.559116 48.490036 156.953643 217.859175 0 0-48.14605-238.426342-200.487879-274.120896-0.008-0.008 30.498765 120.379124-7.683689 157.609615zM892.65658 938.783452s-30.014784-138.106406-71.293112-178.964751c0 0 47.658069-5.827764 52.717865 10.487576 0 0-36.798509-61.261518-123.874982-42.994259 0 0 99.427972 109.767554 142.450229 211.471434z" fill="#A3D6A5" p-id="12207"></path><path d="M800.696306 589.905584c-84.832564-68.86921-165.377301-75.608937-218.011169-69.141199-66.505306 8.171669-128.822782 43.130253-166.681248 93.500212-24.679 32.846669-32.070701 75.424945-21.363135 123.135013 17.02731 75.888926 79.440782 155.497701 151.781852 193.612157 135.062529 71.157118 346.729955 90.976315 355.677592 91.784282l13.343459 1.207951 1.471941-13.319461c1.351945-12.231505 31.374729-300.959809-116.219292-420.782955z m-214.675304-42.010298c47.366081-5.819764 120.079136 0.419983 197.456001 63.233439 34.366608 27.89487 58.169644 66.817293 74.54498 109.439566-56.661705-28.026865-117.523239-21.067147-136.930453-17.795279-34.706594-26.934909-69.077202-45.798145-100.019948-58.925613-67.529265-28.64684-127.746825-35.042581-163.025396-35.862547 33.438645-32.238694 79.388784-54.121808 127.974816-60.089566z m285.176448 213.099368c17.343297 63.44143 21.407133 129.85874 21.46313 177.788798-39.270409-96.052109-90.260344-163.757367-142.450229-211.471434 31.030743-1.419942 80.884724 2.403903 120.987099 33.682636z m-449.889776-29.582802c-5.895761-26.310934-8.091672-63.717419 13.167466-95.856117 19.579207-1.255949 81.436701-2.439901 155.581698 24.44701 7.119712 8.319663 62.70146 28.810833 34.302611 169.441136-1.48394 7.3997 2.95188 14.679405 10.327581 16.339338a13.647447 13.647447 0 0 0 16.335339-10.319582c15.647366-69.325192-0.279989-123.127012-16.767321-156.493661a423.486845 423.486845 0 0 1 72.213075 45.790146 13.619448 13.619448 0 0 0 6.65973 5.311784c65.061365 53.157847 127.62683 135.610507 170.657087 263.197339-56.941693-6.883721-218.391153-30.474766-324.62685-86.440499-65.757336-34.650596-122.43904-106.779675-137.850416-175.416894z" fill="#6E6E96" p-id="12208"></path><path d="M571.2376 64.210879c103.131822-36.098538 228.674737 30.626759 280.424641 149.037963 51.745904 118.423203-11.235545 246.881999-114.375367 282.988537" fill="#FF9E9E" p-id="12209"></path><path d="M625.939385 67.522745s175.660884 29.322812 193.088178 190.532282c17.427294 161.20147-16.847318 21.335136-58.525629 21.335136 0 0 39.73439 117.435243 54.577789 164.597332 0 0 90.676327-74.832969 45.338163-220.791056-45.334164-145.954088-203.195769-158.857565-234.478501-155.673694z" fill="#CC5656" opacity=".33" p-id="12210"></path><path d="M575.557425 76.546379c96.656085-33.83063 215.135285 29.838791 264.129301 141.938251 23.071065 52.793861 23.267058 110.571521 0.547978 162.697409-21.299137 48.87402-60.397553 86.308504-107.271655 102.723839l8.65165 24.671001c53.705824-18.799238 98.384015-61.429512 122.583034-116.951263 25.658961-58.869615 25.454969-124.074974-0.559977-183.604562-54.333799-124.346963-187.444407-194.392126-296.719981-156.149675l8.63965 24.675z" fill="#6E6E96" p-id="12211"></path><path d="M746.374506 283.565993c74.916965 73.729013 76.556899 249.405897-10.971556 346.197977-87.536454 96.796079-226.786813 79.97676-301.707778 20.535168" fill="#FF9E9E" p-id="12212"></path><path d="M752.898242 283.565993l-4.499818 5.291786c42.518278 78.808808 32.862669 207.083611-38.346447 282.944539-67.845252 72.285072-168.037193 76.000921-241.950199 45.810144l-27.866871 32.686676c74.924965 59.437592 214.163325 76.260911 301.703779-20.535168 87.528454-96.792079 85.884521-272.468963 10.959556-346.197977z" fill="#CC5656" opacity=".33" p-id="12213"></path><path d="M737.210877 292.885616c66.509306 65.465348 74.444984 233.078558-11.495534 328.122708-79.464781 87.840442-209.231524 78.276829-283.8885 19.047229l-16.255342 20.47917c83.904601 66.557304 229.918686 77.068878 319.531057-21.999109 88.768404-98.164024 94.036191-282.008576 10.447576-364.285243l-18.339257 18.635245z" fill="#6E6E96" p-id="12214"></path><path d="M550.342447 518.460478c18.02727 16.591328 20.295178 36.454523-5.447779 68.185238-68.62922 84.628572-203.083774 89.344381-300.331835 10.495575-126.294884-126.294884-109.559562-365.233205-4.495818-381.984527" fill="#FF9E9E" p-id="12215"></path><path d="M224.971627 257.119065s-106.063704 382.004526 291.648186 310.739412c0 0-122.259048 98.516009-277.740749-56.969692-155.485702-155.485702-44.854183-267.813151-15.491373-281.560595l1.583936 27.790875z" fill="#FFB0B0" p-id="12216"></path><path d="M563.717905 532.427913c-67.529265 73.261032-199.831905 77.352867-295.528029 9.079632-113.499402-99.859955-109.587561-281.020616-29.318812-322.746927-99.063987 25.582964-112.443445 256.973591 11.135549 380.564585 97.248061 78.844806 231.706614 74.132997 300.339834-10.491575 20.47917-25.270976 23.187061-42.994258 14.359418-57.545669-0.335986 0.387984-0.627975 0.74797-0.98396 1.139954z" fill="#CC5656" opacity=".33" p-id="12217"></path><path d="M541.494805 528.080089c7.767685 7.14771 19.51121 17.959273-6.747726 50.337961-63.985408 78.892804-190.468285 82.740648-281.948579 8.559653l1.007959 0.911963c-79.912763-79.900763-100.555927-211.231443-74.344989-292.04017 7.383701-22.755078 25.342973-61.837495 62.661462-67.777255l-4.119833-25.818954c-37.854467 6.039755-67.477267 36.410525-83.404621 85.536535-28.246856 87.076473-9.551613 228.330751 80.71673 318.595095l0.48398 0.47998 0.527979 0.431983c102.679841 83.256627 245.650049 77.684853 318.715089-12.415497 10.331581-12.723485 41.734309-51.449916 4.143833-86.036515l-17.691284 19.23922z" fill="#6E6E96" p-id="12218"></path><path d="M272.809689 329.620128C189.017083 236.99188 260.902171 86.929959 374.725561 34.688075c80.604735-36.994501 244.802084-34.254612 244.802083 67.973246" fill="#FF9E9E" p-id="12219"></path><path d="M262.634101 291.957653s-39.390404-119.035178 92.932236-205.459677c132.31864-86.424499 240.478259-19.647204 240.478259-19.647204s-83.172631-99.699961-250.869838 0c-167.693207 99.707961-82.540656 225.110881-82.540657 225.110881z" fill="#FFB0B0" p-id="12220"></path><path d="M282.505296 320.848483c-36.446524-40.286368-36.29453-86.744486-29.750795-118.619195 13.183466-64.1774 64.389392-126.730866 127.422839-155.665694 53.517832-24.559005 146.950047-30.254774 195.436083 0.839966 20.467171 13.131468 30.838751 31.718715 30.838751 55.253762h26.134941c0-32.558681-14.8194-59.269599-42.866263-77.252871-56.405715-36.186534-159.529538-30.558762-220.45107-2.599895-71.33311 32.746674-127.114851 101.099905-142.122243 174.156946-10.967556 53.437835 1.799927 103.655801 35.966543 141.422271l19.391214-17.53529z" fill="#6E6E96" p-id="12221"></path><path d="M498.400551 217.456671c-95.316139-7.923679-127.102851-62.997448-75.652936-106.187698 69.905168-58.689623 192.456204-49.290003 273.684914 20.97915 81.244709 70.285153 62.95745 188.61236-6.931719 247.301982" fill="#FF9E9E" p-id="12222"></path><path d="M431.155275 121.288567s131.190686-80.704731 229.938686 18.039269c98.736 98.74 25.398971 150.881888-62.997449 108.543603l20.515169 49.39s71.769093 36.77851 76.940884 76.936883c0 0 161.025477-201.615833-96.548089-290.424236 0 0.004-104.287776-31.718715-167.849201 37.514481z" fill="#CC5656" opacity=".33" p-id="12223"></path><path d="M499.480507 204.433199c-45.90614-3.815845-80.016759-20.275179-86.89248-41.926302-5.591773-17.611287 9.235626-33.382648 18.567248-41.21433 65.093363-54.653786 180.260698-45.302165 256.7296 20.847155 31.958705 27.64688 49.385999 65.969328 49.078012 107.899629-0.327987 45.738147-21.21914 90.412338-55.861737 119.50316l16.807319 20.027188c40.422363-33.958624 64.805375-86.044515 65.197359-139.334355 0.359985-49.717986-20.279179-95.128147-58.117646-127.862821-85.764526-74.180995-216.143245-83.652611-290.640226-21.103145-24.411011 20.48317-34.134617 45.690149-26.67492 69.157198 10.415578 32.770673 51.397918 55.217763 109.643559 60.069567l2.167912-26.062944z" fill="#6E6E96" p-id="12224"></path><path d="M603.936276 283.16601c77.396865 23.119063 108.295613 98.528009 69.025204 168.445176-39.278409 69.909168-133.834579 121.479079-211.227444 98.368016" fill="#FF9E9E" p-id="12225"></path><path d="M575.673421 487.229743s114.087379-44.102214 49.653988-140.686301l-2.595894-56.333718s96.088108 63.69342 54.701784 155.193714c-41.390323 91.496294-139.170363 101.047907-139.170363 101.047906l37.410485-59.221601z" fill="#CC5656" opacity=".33" p-id="12226"></path><path d="M600.192428 295.685502c33.738633 10.079592 58.621625 31.210736 70.057162 59.489591 11.311542 27.950868 8.219667 59.925573-8.683649 90.036352-35.042581 62.365474-122.20305 114.319369-196.096056 92.248264l-7.479697 25.054985c85.872521 25.634962 186.37645-33.33465 226.36283-104.495767 20.883154-37.182494 24.479008-77.184873 10.13559-112.647437-14.479413-35.79055-45.306165-62.329475-86.804484-74.732973l-7.491696 25.046985z" fill="#6E6E96" p-id="12227"></path><path d="M497.624582 425.268253c69.157199 27.942868 87.696448 77.724852 33.918626 109.967546-71.721095 43.034257-183.300575 5.887761-236.582416-82.932641-53.289841-88.844401-28.086862-195.712072 43.630232-238.742329 44.358203-26.606922 57.141685 3.19987 73.045042 50.817942" fill="#FF9E9E" p-id="12228"></path><path d="M371.821678 217.400674S259.994208 265.726716 315.807947 388.753732c55.813739 123.039016 151.633858 125.034935 180.808676 95.856118 29.174818-29.174818-23.963029-45.746147-23.963029-45.746147s96.972072 2.531897 84.956558 63.169441c-12.007514 60.637544-163.377382 78.424823-246.162028-32.670677-82.776647-111.103499-7.791684-266.469206 60.369554-251.961793z" fill="#CC5656" opacity=".33" p-id="12229"></path><path d="M376.101505 219.904572S228.123499 297.269438 386.165097 474.426262c0 0-194.53612-147.214037-25.974948-265.933228 0-0.004 10.939557 1.939921 15.911356 11.411538z" fill="#FFB0B0" p-id="12230"></path><path d="M492.73678 437.391762c33.638637 13.591449 55.429755 33.466644 56.877696 51.877899 1.22395 15.707364-12.811481 27.574883-24.798995 34.758592-66.037325 39.618395-170.249104 2.21991-218.651143-78.452822-47.178089-78.652814-29.246815-179.772718 39.154414-220.807056 11.747524-7.047715 20.667163-9.527614 26.502926-7.371701 10.899558 4.027837 19.191223 26.474928 27.41889 51.109929l24.794995-8.279664c-11.09955-33.226654-21.323136-59.277599-43.150252-67.349272-13.83544-5.119793-29.87079-2.011919-49.018014 9.475616-38.046459 22.819076-65.301355 63.221439-74.788971 110.83551-9.775604 49.070012-0.299988 100.863914 26.66692 145.834093 56.421714 94.06019 175.352897 134.906535 254.51769 87.428458 25.890951-15.527371 39.178413-36.558519 37.410485-59.221601-2.295907-29.218816-28.946827-56.217723-73.149037-74.076999l-9.787604 24.239018z" fill="#6E6E96" p-id="12231"></path><path d="M498.356553 218.120644c64.329394 0 116.471282 47.006096 116.471282 104.987748 0 57.989651-52.141888 104.995747-116.475282 104.995746-64.309395 0-116.451283-47.006096-116.451283-104.995746 0-57.981651 52.137888-104.987747 116.455283-104.987748z" fill="#FF9E9E" p-id="12232"></path><path d="M575.613423 258.247019a87.344462 87.344462 0 0 1 4.399822 27.318893c0 53.101849-47.754066 96.144105-106.65968 96.144106-30.578761 0-58.129645-11.61153-77.572857-30.194777 13.063471 39.790388 53.885817 68.825212 102.259857 68.825212 58.909614 0 106.64768-43.046256 106.64768-96.148105 0-25.534966-11.059552-48.726026-29.074822-65.945329z" fill="#CC5656" opacity=".33" p-id="12233"></path><path d="M498.356553 231.192115c57.013691 0 103.395812 41.23833 103.395811 91.916277 0 50.685947-46.382121 91.920277-103.395811 91.920276-57.001691 0-103.387812-41.23433-103.387812-91.916277-0.004-50.685947 46.382121-91.920277 103.387812-91.920276zM368.8298 323.108392c0 65.101363 58.101646 118.063218 129.526753 118.063217 71.429107 0 129.538753-52.957855 129.538752-118.063217 0-65.093363-58.109646-118.059218-129.538752-118.059218-71.425107 0.004-129.526753 52.965854-129.526753 118.059218z" fill="#6E6E96" p-id="12234"></path><path d="M476.089455 201.209329s-85.444539-23.767037 0-68.965206 215.667264 2.591895 232.198594 89.86436c0 0-49.701987-189.556321-248.253944-119.463161 0 0-126.466877 62.96145 16.05535 98.564007z" fill="#FFB0B0" p-id="12235"></path></svg>